<svg width="302" height="79" viewBox="0 0 302 79" fill="none" xmlns="http://www.w3.org/2000/svg">
<path d="M35.7355 56.5067L29.7495 38.7947H13.5135L7.19952 56.5067H13.3495V58.0647H0.803523V56.5067H4.65752L25.5675 0.172695H32.2915L52.9555 56.5067H56.7275V58.0647H29.9135V56.5067H35.7355ZM21.9595 15.5067L14.2515 36.9907H29.0935L21.9595 15.5067ZM90.9491 14.7687L93.2451 13.3747C93.5731 11.68 92.9171 10.8327 91.2771 10.8327C88.9264 10.8327 87.7511 12.6367 87.7511 16.2447C87.7511 17.666 87.9424 19.306 88.3251 21.1647C92.4797 23.9527 94.5571 27.5334 94.5571 31.9067C94.5571 36.2254 93.0537 39.5874 90.0471 41.9927C87.0404 44.398 82.9677 45.6007 77.8291 45.6007C75.6971 45.6007 73.4831 45.382 71.1871 44.9447C68.7817 46.4754 67.5791 47.6234 67.5791 48.3887C67.5791 49.154 69.3284 49.5367 72.8271 49.5367H81.1911C93.6004 49.5367 99.8051 53.992 99.8051 62.9027C99.8051 67.7134 97.9191 71.5127 94.1471 74.3007C90.4297 77.1434 84.6077 78.5647 76.6811 78.5647C63.1784 78.5647 56.4271 75.64 56.4271 69.7907C56.4271 66.62 58.5317 64.4334 62.7411 63.2307L67.6611 65.4447C67.2237 67.03 67.0051 68.5334 67.0051 69.9547C67.0051 74.656 70.5037 77.0067 77.5011 77.0067C81.7651 77.0067 85.0451 76.214 87.3411 74.6287C89.6371 73.0434 90.7851 71.0754 90.7851 68.7247C90.7851 66.374 90.0744 64.7887 88.6531 63.9687C87.2864 63.2034 84.5257 62.8207 80.3711 62.8207H72.4171C67.9891 62.8207 64.8184 62.0827 62.9051 60.6067C60.9917 59.1307 60.0351 57.3267 60.0351 55.1947C60.0351 53.008 60.7184 51.204 62.0851 49.7827C63.4517 48.3067 65.8844 46.5027 69.3831 44.3707C63.0417 42.5667 59.8711 38.412 59.8711 31.9067C59.8711 27.8067 61.3471 24.4994 64.2991 21.9847C67.2511 19.47 71.6791 18.2127 77.5831 18.2127C81.1364 18.2127 84.1704 18.896 86.6851 20.2627C86.3571 18.7867 86.1931 17.4474 86.1931 16.2447C86.1931 13.1834 87.0131 10.9694 88.6531 9.6027C90.2931 8.23603 92.1244 7.55269 94.1471 7.55269C96.1697 7.55269 97.7824 8.09936 98.9851 9.1927C100.242 10.2314 100.871 11.68 100.871 13.5387C100.871 15.3974 100.379 16.7914 99.3951 17.7207C98.4111 18.5954 97.2084 19.0327 95.7871 19.0327C94.4204 19.0327 93.2724 18.6774 92.3431 17.9667C91.4684 17.2014 91.0037 16.1354 90.9491 14.7687ZM73.5651 30.1027V34.5307C73.5651 38.1934 73.8657 40.6807 74.4671 41.9927C75.1231 43.3047 76.0797 43.9607 77.3371 43.9607C78.6491 43.9607 79.5784 43.332 80.1251 42.0747C80.7264 40.7627 81.0271 38.1114 81.0271 34.1207V30.1027C81.0271 25.8387 80.7537 23.0507 80.2071 21.7387C79.6604 20.372 78.7311 19.6887 77.4191 19.6887C76.1617 19.6887 75.2051 20.3994 74.5491 21.8207C73.8931 23.1874 73.5651 25.948 73.5651 30.1027ZM128.297 21.3287C126.274 21.3287 124.498 22.6407 122.967 25.2647C121.436 27.8887 120.671 31.0047 120.671 34.6127V56.5887H126.493V58.0647H100.909V56.5887H105.419V20.5087H100.909V19.0327H120.671V26.9047C121.382 24.1167 122.748 21.9847 124.771 20.5087C126.794 18.978 129.09 18.2127 131.659 18.2127C134.228 18.2127 136.306 18.9507 137.891 20.4267C139.531 21.848 140.351 23.898 140.351 26.5767C140.351 29.2007 139.75 31.2234 138.547 32.6447C137.344 34.066 135.486 34.7767 132.971 34.7767C130.511 34.7767 128.68 33.9567 127.477 32.3167C126.329 30.6767 126.192 28.408 127.067 25.5107H130.019C131.386 22.7227 130.812 21.3287 128.297 21.3287ZM167.594 41.9107V34.9407C167.594 29.638 167.293 25.784 166.692 23.3787C166.145 20.9187 164.833 19.6887 162.756 19.6887C161.553 19.6887 160.569 20.044 159.804 20.7547C159.093 21.4107 158.574 22.5314 158.246 24.1167C157.754 26.5767 157.508 30.3214 157.508 35.3507V41.7467C157.508 47.7054 157.672 51.286 158 52.4887C158.383 53.6914 158.765 54.6754 159.148 55.4407C159.749 56.7527 160.925 57.4087 162.674 57.4087C164.806 57.4087 166.2 56.1787 166.856 53.7187C167.348 51.9694 167.594 48.0334 167.594 41.9107ZM162.51 58.8847C155.677 58.8847 150.511 57.1354 147.012 53.6367C143.513 50.138 141.764 45.136 141.764 38.6307C141.764 32.0707 143.623 27.0414 147.34 23.5427C151.112 19.9894 156.387 18.2127 163.166 18.2127C169.945 18.2127 175.001 19.8527 178.336 23.1327C181.671 26.358 183.338 31.3054 183.338 37.9747C183.338 51.9147 176.395 58.8847 162.51 58.8847ZM188.912 35.2687V32.8087H209.576V35.2687H188.912ZM215.69 0.664693H240.7V2.22269H236.19V56.5067H240.7V58.0647H215.69V56.5067H220.2V2.22269H215.69V0.664693ZM301.336 28.3807C301.336 39.642 298.165 47.4867 291.824 51.9147C285.975 56.0147 277.939 58.0647 267.716 58.0647H244.51V56.5067H249.922V2.22269H244.51V0.664693H269.848C280.344 0.664693 288.216 2.82403 293.464 7.14269C298.712 11.4067 301.336 18.486 301.336 28.3807ZM265.912 56.5067H269.028C274.549 56.5067 278.485 54.566 280.836 50.6847C283.241 46.7487 284.444 40.1887 284.444 31.0047V26.2487C284.444 13.9487 282.093 6.54136 277.392 4.02669C275.151 2.82403 271.98 2.22269 267.88 2.22269H265.912V56.5067Z" fill="#2B361E"/>
</svg>
