<svg width="20" height="18" viewBox="0 0 20 18" fill="none" xmlns="http://www.w3.org/2000/svg">
<path fill-rule="evenodd" clip-rule="evenodd" d="M5 2C5 0.895431 5.89543 0 7 0H13C14.1046 0 15 0.895431 15 2V4H18C19.1046 4 20 4.89543 20 6V7L10.2425 9.90859C10.0833 9.9484 9.9167 9.9484 9.75747 9.90859L0 7V6C0 4.89543 0.895431 4 2 4H5V2ZM13 2H7V4H13V2Z" fill="#196343" fill-opacity="0.52"/>
<path d="M20 9L10.7276 11.8489C10.2499 11.9683 9.75011 11.9683 9.27239 11.8489L0 9V16C0 17.1046 0.895431 18 2 18H18C19.1046 18 20 17.1046 20 16V9Z" fill="#196343" fill-opacity="0.52"/>
</svg>
