<svg width="16" height="16" viewBox="0 0 16 16" fill="none" xmlns="http://www.w3.org/2000/svg">
<path d="M8 3.00111C7.96456 3.00037 8.03561 3 8 3C7.96439 3 8.03544 3.00037 8 3.00111C7.45184 3.74526 6.6632 4.71695 6.28546 6H9.71454C9.3368 4.71695 8.54816 3.74526 8 3.00111Z" fill="#002033"/>
<path d="M10.7483 6C10.4598 4.87574 9.96527 3.9531 9.49087 3.22604C10.8793 3.65918 12.0078 4.68131 12.584 6H10.7483Z" fill="#002033"/>
<path d="M9.93087 7H6.06913C6.0246 7.31697 6 7.65001 6 8.00001C6 8.35 6.0246 8.68303 6.06912 9H9.93088C9.9754 8.68303 10 8.35 10 8.00001C10 7.65001 9.9754 7.31697 9.93087 7Z" fill="#002033"/>
<path d="M10.9383 9C10.9781 8.68025 11 8.34696 11 8.00001C11 7.65305 10.9781 7.31975 10.9383 7H12.9C12.9656 7.32311 13 7.65753 13 8C13 8.34247 12.9656 8.67689 12.9 9H10.9383Z" fill="#002033"/>
<path d="M9.71454 10H6.28546C6.66319 11.283 7.45184 12.2547 8 12.9989C8.03544 12.9996 7.96438 13 8 13C8.03562 13 7.96456 12.9996 8 12.9989C8.54816 12.2547 9.33681 11.283 9.71454 10Z" fill="#002033"/>
<path d="M9.49089 12.7739C9.96528 12.0469 10.4598 11.1243 10.7483 10H12.584C12.0078 11.3187 10.8793 12.3408 9.49089 12.7739Z" fill="#002033"/>
<path d="M3.41604 6C3.9922 4.68131 5.12071 3.65918 6.50913 3.22604C6.03473 3.9531 5.54025 4.87574 5.2517 6H3.41604Z" fill="#002033"/>
<path d="M3.10002 7H5.06171C5.02187 7.31975 5 7.65305 5 8.00001C5 8.34696 5.02187 8.68025 5.06171 9H3.10002C3.03443 8.67689 3 8.34247 3 8C3 7.65753 3.03443 7.32311 3.10002 7Z" fill="#002033"/>
<path d="M3.41604 10H5.2517C5.54024 11.1243 6.03472 12.0469 6.50911 12.7739C5.1207 12.3408 3.9922 11.3187 3.41604 10Z" fill="#002033"/>
</svg>
