<svg width="12" height="13" viewBox="0 0 12 13" fill="none" xmlns="http://www.w3.org/2000/svg">
<path fill-rule="evenodd" clip-rule="evenodd" d="M6 11.6665C8.76142 11.6665 11 9.42793 11 6.6665C11 3.90508 8.76142 1.6665 6 1.6665C3.23858 1.6665 1 3.90508 1 6.6665C1 9.42793 3.23858 11.6665 6 11.6665ZM5.06571 5.23793H3.85714C3.85714 3.95222 4.77375 3.09508 6.14286 3.09508C7.41831 3.09508 8.28571 3.91328 8.28571 5.02365C8.28571 5.74466 7.98595 6.26754 7.35714 6.6665C6.76401 7.03662 6.52857 7.20006 6.52857 7.66151L6.56429 8.09508H5.38571L5.33571 7.65189C5.27774 6.88281 5.59886 6.48442 6.21429 6.09508C6.78958 5.72495 6.92857 5.5421 6.92857 5.09508C6.92857 4.59924 6.56567 4.2487 6 4.2487C5.43433 4.2487 5.09246 4.70919 5.06571 5.23793ZM6.79159 9.55739C6.79159 10.0621 6.48387 10.3745 5.98439 10.3745C5.48491 10.3745 5.17274 10.0621 5.17274 9.55739C5.17274 9.04787 5.48491 8.73543 5.98439 8.73543C6.48387 8.73543 6.79159 9.04787 6.79159 9.55739Z" fill="#196343" fill-opacity="0.52"/>
</svg>
