<svg width="10" height="8" viewBox="0 0 10 8" fill="none" xmlns="http://www.w3.org/2000/svg">
<path d="M5 2C5 3.10457 4.10457 4 3 4C1.89543 4 1 3.10457 1 2C1 0.895431 1.89543 0 3 0C4.10457 0 5 0.895431 5 2Z" fill="#002033" fill-opacity="0.6"/>
<path d="M3 5C5.33333 5 6 6.17746 6 8H0C0 6.17746 0.666667 5 3 5Z" fill="#002033" fill-opacity="0.6"/>
<path d="M6.00008 2C6.00008 2.52704 5.86417 3.02234 5.62549 3.45276C5.98386 3.79197 6.46768 4 7.00008 4C8.10465 4 9.00008 3.10457 9.00008 2C9.00008 0.895431 8.10465 0 7.00008 0C6.46768 0 5.98386 0.20803 5.62549 0.547238C5.86417 0.977659 6.00008 1.47296 6.00008 2Z" fill="#002033" fill-opacity="0.6"/>
<path d="M10.0001 8H7.00008C7.00008 7.00101 6.82412 5.95152 6.12664 5.15688C6.10323 5.13021 6.07944 5.10406 6.05527 5.07841C6.33464 5.02674 6.64843 5 7.00008 5C9.33341 5 10.0001 6.17746 10.0001 8Z" fill="#002033" fill-opacity="0.6"/>
</svg>
