<svg width="128" height="152" viewBox="0 0 128 152" fill="none" xmlns="http://www.w3.org/2000/svg">
<g opacity="0.7" clip-path="url(#clip0_986_3296)">
<path d="M63.869 121.24C97.3485 121.24 124.489 94.0995 124.489 60.62C124.489 27.1405 97.3485 0 63.869 0C30.3895 0 3.24898 27.1405 3.24898 60.62C3.24898 94.0995 30.3895 121.24 63.869 121.24Z" fill="#AE8E49"/>
<path d="M95.939 63.55C94.839 53.04 92.459 42.67 88.899 32.73C88.789 31.23 88.569 29.76 88.219 28.35C87.129 23.93 84.879 19.99 81.849 16.86C78.259 13.16 73.579 10.61 68.329 9.81002C68.159 9.79002 67.989 9.75002 67.819 9.73002C67.599 9.69002 67.389 9.67002 67.169 9.65002C66.759 9.60002 66.349 9.58002 65.939 9.56002C65.619 9.54002 65.279 9.52002 64.959 9.52002H64.689C64.609 9.52002 64.539 9.52002 64.459 9.53002C64.449 9.52002 64.439 9.52002 64.429 9.53002C53.209 9.65002 43.809 17.61 41.149 28.34C40.999 28.94 40.879 29.54 40.779 30.15C35.099 42.13 33.159 55.94 33.379 69.32C34.259 67.02 35.659 64.92 37.449 63.22C35.789 66.81 35.819 71.12 37.489 74.71L37.469 74.95H37.589C37.589 74.95 37.629 75.04 37.649 75.08L37.669 74.95H91.559L91.349 74.43C91.979 74.25 92.779 74.3 93.319 74.04C93.199 72.65 93.089 71.27 92.969 69.88C93.659 70.95 94.409 71.39 95.099 72.46C94.669 68.93 94.089 64.68 93.089 61.27C94.219 61.96 95.359 62.35 95.939 63.54V63.55Z" fill="#2B361E"/>
<path d="M76.089 88.4697C76.309 95.0897 71.119 100.57 64.649 100.57C58.179 100.57 53.209 95.3096 53.209 88.8596C53.209 88.7296 53.209 88.5997 53.209 88.4697L54.479 70.9996L54.639 68.7496L55.439 57.8896H73.839L74.659 69.1497L74.839 71.6096L76.079 88.4697H76.089Z" fill="#FAF8F6" stroke="#2B361E" stroke-width="0.5" stroke-linecap="round" stroke-linejoin="round"/>
<path d="M75.449 79.9298C69.649 80.6398 63.109 77.8498 58.679 72.1898C56.879 69.8998 55.629 67.3798 54.909 64.8298L55.429 57.7798H73.829L74.649 69.0398L74.839 71.4998L75.449 79.9298Z" fill="#2B361E"/>
<path d="M80.249 40.3799C77.939 44.0899 78.159 48.4899 80.749 50.1999C83.339 51.9099 87.309 50.2899 89.619 46.5799C91.929 42.8699 91.709 38.4699 89.119 36.7598C86.529 35.0498 82.559 36.6699 80.249 40.3799Z" fill="#FAF8F6" stroke="#2B361E" stroke-width="0.5" stroke-linecap="round" stroke-linejoin="round"/>
<path d="M87.1689 38.54C88.2889 38.98 89.1389 40.04 89.3189 41.23C89.4989 42.42 89.0089 43.69 88.0689 44.44" stroke="#2B361E" stroke-width="0.5" stroke-linecap="round" stroke-linejoin="round"/>
<path d="M49.039 40.3799C51.349 44.0899 51.129 48.4899 48.539 50.1999C45.949 51.9099 41.979 50.2899 39.669 46.5799C37.359 42.8699 37.579 38.4699 40.169 36.7598C42.759 35.0498 46.729 36.6699 49.039 40.3799Z" fill="#FAF8F6" stroke="#2B361E" stroke-width="0.5" stroke-linecap="round" stroke-linejoin="round"/>
<path d="M42.119 38.54C40.999 38.98 40.149 40.04 39.969 41.23C39.789 42.42 40.279 43.69 41.219 44.44" stroke="#2B361E" stroke-width="0.5" stroke-linecap="round" stroke-linejoin="round"/>
<path d="M86.369 34.2397C86.369 34.5897 86.369 34.9297 86.349 35.2597C86.309 36.2597 86.229 37.2697 86.099 38.2497L85.959 39.6497L85.899 40.4097L85.799 41.5097C85.739 42.1797 85.699 42.8397 85.649 43.4997C85.629 43.9197 85.609 44.3297 85.579 44.7497C85.489 46.4097 85.399 48.0597 85.179 49.6997C85.179 49.7297 85.159 49.7597 85.159 49.7797C85.119 50.0897 85.069 50.4097 85.009 50.7097C84.949 51.0597 84.889 51.3897 84.799 51.7197C84.699 52.2197 84.569 52.7097 84.409 53.2097C84.369 53.3997 84.309 53.5697 84.239 53.7597C84.129 54.1197 83.979 54.4897 83.839 54.8597C83.449 55.8297 82.979 56.7697 82.439 57.7097C80.209 61.6097 76.779 65.1897 73.349 67.5597C73.329 67.5897 73.309 67.5997 73.299 67.5997C72.879 67.8997 72.459 68.1697 72.049 68.4197C67.859 70.9797 62.909 71.1198 58.569 68.9098C57.669 68.4598 56.799 67.9397 55.959 67.3197C55.959 67.3197 55.939 67.3198 55.929 67.2998C52.609 64.9298 49.749 61.4897 47.609 57.7097C47.449 57.4397 47.309 57.1797 47.159 56.9097C47.089 56.7697 47.019 56.6197 46.949 56.4797C46.829 56.2497 46.709 55.9997 46.589 55.7497C46.249 55.0997 45.949 54.4197 45.669 53.7597C45.599 53.5697 45.519 53.3897 45.459 53.1997C44.449 50.5397 44.089 47.5697 43.849 44.6397C43.809 44.1897 43.769 43.7197 43.739 43.2697C43.699 42.7597 43.659 42.2397 43.619 41.7397L43.499 40.3697C43.469 40.2197 43.449 40.0697 43.429 39.9297C43.389 39.7597 43.369 39.5997 43.349 39.4297C43.239 38.8097 43.159 38.1797 43.089 37.5297C42.989 36.4697 42.929 35.3697 42.929 34.2397C42.929 34.1497 42.929 34.0497 42.929 33.9497C42.929 33.4297 42.949 32.9197 42.979 32.4097C42.979 32.2297 42.999 32.0497 43.009 31.8697C43.059 31.2797 43.129 30.6997 43.219 30.1397C43.719 26.6697 44.829 23.4397 46.429 20.6097C46.829 19.8997 47.259 19.2197 47.729 18.5597C49.269 16.3497 51.159 14.4497 53.269 12.9597C53.419 12.8397 53.579 12.7297 53.729 12.6297C53.919 12.4997 54.109 12.3697 54.299 12.2497C55.049 11.7897 55.819 11.3697 56.609 11.0097C58.919 9.94975 61.429 9.33975 64.069 9.26975C64.069 9.24975 64.089 9.24975 64.099 9.26975V9.24975C64.229 9.23975 64.369 9.23975 64.499 9.23975H64.629C64.959 9.23975 65.319 9.24975 65.649 9.27975C66.089 9.29975 66.509 9.32975 66.939 9.38975C67.169 9.40975 67.399 9.43975 67.619 9.47975C67.799 9.49975 67.979 9.53975 68.159 9.56975C69.659 9.85975 71.099 10.3097 72.479 10.9397C73.539 11.3997 74.569 11.9697 75.539 12.6297C75.589 12.6597 75.639 12.6997 75.689 12.7297C76.309 13.1497 76.899 13.5897 77.469 14.0797C79.619 15.8897 81.459 18.1397 82.909 20.7197C83.009 20.8797 83.079 21.0297 83.169 21.1797V21.1997C84.569 23.8697 85.579 26.8597 86.039 30.0697C86.039 30.0897 86.039 30.1097 86.039 30.1397C86.129 30.6997 86.189 31.2797 86.239 31.8697C86.239 31.9697 86.259 32.0697 86.259 32.1697C86.309 32.7497 86.329 33.3497 86.329 33.9497C86.329 34.0497 86.329 34.1497 86.329 34.2397H86.369Z" fill="#FAF8F6" stroke="#2B361E" stroke-width="0.5" stroke-linecap="round" stroke-linejoin="round"/>
<path d="M53.339 12.9597C51.809 22.3797 48.509 31.4997 43.659 39.6297C43.609 39.7197 43.549 39.8197 43.479 39.9297C43.439 39.7697 43.419 39.5997 43.399 39.4397C43.289 38.8097 43.209 38.1897 43.149 37.5297C43.039 36.4797 42.979 35.3697 42.979 34.2397C42.979 34.1497 42.979 34.0497 42.989 33.9497C42.989 32.6497 43.079 31.3697 43.279 30.1297C43.899 25.7897 45.479 21.8297 47.779 18.5497C49.329 16.3397 51.209 14.4397 53.319 12.9497L53.339 12.9597Z" fill="#2B361E"/>
<path d="M86.429 34.2397C86.429 34.5897 86.429 34.9297 86.409 35.2597C86.369 36.2597 86.289 37.2697 86.159 38.2497L86.019 39.6597L85.949 40.4197C85.769 40.1297 85.609 39.8697 85.469 39.6297C80.589 31.4297 77.259 22.2397 75.749 12.7397C76.359 13.1497 76.959 13.5997 77.529 14.0897C79.809 16.0097 81.739 18.4197 83.219 21.1897C83.229 21.1897 83.229 21.1997 83.229 21.1997C84.629 23.8697 85.639 26.8697 86.109 30.0797C86.109 30.0997 86.119 30.1197 86.119 30.1497C86.299 31.3897 86.399 32.6597 86.399 33.9697C86.409 34.0597 86.409 34.1597 86.409 34.2597L86.429 34.2397Z" fill="#2B361E"/>
<path d="M86.349 32.17C85.749 32.76 85.039 33.21 84.199 33.41C81.839 33.99 79.389 32.34 78.249 30.19C77.099 28.05 77.459 25.1 77.339 22.67C76.819 26.57 74.199 29.82 70.909 31.99C73.409 29.43 74.239 25.15 73.669 21.62C73.499 22.4 73.179 23.22 72.769 24.05C70.219 29.1 64.919 32.17 59.259 32.14C56.459 32.13 53.729 32.11 52.949 32.11C56.039 30.54 57.789 27.25 59.349 24.15C55.839 28.24 51.219 31.34 46.119 33.06C45.059 33.42 43.859 33.21 43.069 32.42H43.059C43.059 32.42 43.059 32.39 43.059 32.38C43.109 31.61 43.189 30.86 43.309 30.13C43.809 26.66 44.919 23.43 46.519 20.6C46.919 19.89 47.349 19.21 47.819 18.55C49.359 16.34 51.249 14.44 53.359 12.95C53.509 12.83 53.669 12.72 53.819 12.62C54.009 12.49 54.199 12.36 54.389 12.24C55.139 11.78 55.909 11.36 56.699 11C59.009 9.93998 61.519 9.32998 64.159 9.25998C64.159 9.23998 64.179 9.23998 64.189 9.25998V9.23998C64.319 9.22998 64.459 9.22998 64.589 9.22998H64.719C65.049 9.22998 65.409 9.23998 65.739 9.26998C66.179 9.28998 66.599 9.31998 67.029 9.37998C67.259 9.39998 67.489 9.42998 67.709 9.46998C67.889 9.48998 68.069 9.52998 68.249 9.55998C69.749 9.84998 71.189 10.3 72.569 10.93C73.629 11.39 74.659 11.96 75.629 12.62C75.679 12.65 75.729 12.69 75.779 12.72C76.399 13.14 76.989 13.58 77.559 14.07C79.709 15.88 81.549 18.13 82.999 20.71C83.099 20.87 83.169 21.02 83.259 21.17V21.19C84.659 23.86 85.669 26.85 86.129 30.06C86.129 30.08 86.129 30.1 86.129 30.13C86.229 30.78 86.299 31.46 86.349 32.15C86.349 32.15 86.349 32.15 86.349 32.16V32.17Z" fill="#2B361E"/>
<path d="M80.189 26.92C83.579 31.3 85.509 36.81 85.589 42.35C85.669 47.89 83.909 53.45 80.649 57.94C84.859 53.95 87.579 49.48 88.169 43.71C88.759 37.94 87.229 31.98 83.929 27.22C83.509 26.61 83.009 25.98 82.299 25.74C81.589 25.5 80.289 26.18 80.169 26.92H80.189Z" fill="#2B361E"/>
<path d="M69.0289 36.8598C69.7089 35.9398 70.6989 35.4098 71.6689 35.0298C72.6589 34.6698 73.6889 34.4998 74.7189 34.4698C75.7489 34.4498 76.7689 34.5798 77.7589 34.8698C78.7489 35.1798 79.7289 35.6098 80.5589 36.3898C79.4889 36.6898 78.5289 36.8198 77.5789 36.9398C76.6289 37.0398 75.6989 37.0898 74.7789 37.1098C73.8589 37.1298 72.9389 37.1098 71.9989 37.0698C71.0589 37.0198 70.1289 36.9598 69.0289 36.8598Z" fill="#2B361E"/>
<path d="M60.2589 36.8598C59.5789 35.9398 58.5889 35.4098 57.6189 35.0298C56.6289 34.6698 55.5989 34.4998 54.5689 34.4698C53.5389 34.4498 52.5189 34.5798 51.5289 34.8698C50.5389 35.1798 49.5589 35.6098 48.7289 36.3898C49.7989 36.6898 50.7589 36.8198 51.7089 36.9398C52.6589 37.0398 53.5889 37.0898 54.5089 37.1098C55.4289 37.1298 56.3489 37.1098 57.2889 37.0698C58.2289 37.0198 59.1589 36.9598 60.2589 36.8598Z" fill="#2B361E"/>
<path d="M68.699 45.0297C69.229 44.2397 69.759 43.4397 70.469 42.7197C71.149 41.9897 72.009 41.3897 72.999 41.0297C73.989 40.6597 75.119 40.6297 76.139 40.9297C77.179 41.1997 78.059 41.7997 78.809 42.4997L78.749 42.4497C79.169 42.7797 79.599 43.0997 80.019 43.4397L79.729 43.3497C79.729 43.3497 79.869 43.3597 79.989 43.3197C80.119 43.2797 80.259 43.2197 80.399 43.1497C80.679 43.0097 80.959 42.8497 81.209 42.6697H81.219C81.319 42.5897 81.459 42.6197 81.529 42.7097C81.589 42.7897 81.579 42.8997 81.529 42.9697C81.309 43.2497 81.079 43.4897 80.819 43.7297C80.689 43.8497 80.549 43.9597 80.399 44.0697C80.229 44.1697 80.089 44.2997 79.739 44.3397C79.659 44.3397 79.579 44.3297 79.509 44.2897L79.449 44.2497C78.989 43.9697 78.549 43.6697 78.099 43.3797L78.069 43.3597L78.039 43.3397C77.379 42.7597 76.619 42.3197 75.819 42.0797C75.019 41.8197 74.169 41.8597 73.349 42.0797C72.529 42.3097 71.769 42.7897 71.069 43.3597C70.379 43.9297 69.739 44.6497 69.049 45.3097C68.959 45.3897 68.819 45.3897 68.739 45.3097C68.669 45.2297 68.659 45.1197 68.719 45.0297H68.699Z" fill="#2B361E"/>
<path d="M72.499 43.1796C72.569 42.1696 73.449 41.4096 74.469 41.4796C75.479 41.5496 76.239 42.4296 76.169 43.4496C76.099 44.4596 75.219 45.2196 74.199 45.1496C73.189 45.0796 72.429 44.1996 72.499 43.1796Z" fill="#2B361E"/>
<path d="M77.909 44.8797C78.589 44.7297 79.229 44.4197 79.769 43.9897" stroke="#2B361E" stroke-width="0.5" stroke-linecap="round" stroke-linejoin="round"/>
<path d="M68.889 42.8698C69.749 41.3598 71.239 40.2198 72.929 39.7998" stroke="#2B361E" stroke-width="0.5" stroke-linecap="round" stroke-linejoin="round"/>
<path d="M60.259 45.3099C59.569 44.6499 58.929 43.9299 58.239 43.3599C57.539 42.7899 56.779 42.3099 55.959 42.0799C55.149 41.8599 54.299 41.8199 53.489 42.0799C52.689 42.3199 51.919 42.7599 51.269 43.3399L51.239 43.3599L51.209 43.3799C50.759 43.6699 50.319 43.9699 49.859 44.2499L49.799 44.2899C49.729 44.3299 49.649 44.3499 49.569 44.3399C49.219 44.2899 49.079 44.1699 48.909 44.0699C48.749 43.9599 48.619 43.8499 48.489 43.7299C48.229 43.4899 47.999 43.2499 47.779 42.9699C47.709 42.8699 47.719 42.7399 47.819 42.6599C47.899 42.5999 47.999 42.5999 48.079 42.6599H48.089C48.339 42.8399 48.619 43.0099 48.899 43.1399C49.039 43.2099 49.179 43.2699 49.309 43.3099C49.429 43.3499 49.589 43.3699 49.569 43.3399L49.279 43.4299C49.689 43.0899 50.119 42.7699 50.549 42.4399L50.489 42.4899C51.239 41.7999 52.129 41.1899 53.159 40.9199C54.179 40.6199 55.309 40.6499 56.299 41.0199C57.289 41.3799 58.149 41.9899 58.829 42.7099C59.539 43.4299 60.059 44.2299 60.599 45.0199C60.669 45.1199 60.639 45.2599 60.539 45.3199C60.449 45.3799 60.339 45.3699 60.259 45.2999V45.3099Z" fill="#2B361E"/>
<path d="M56.789 43.1801C56.719 42.1701 55.839 41.4101 54.819 41.4801C53.799 41.5501 53.049 42.4301 53.119 43.4501C53.189 44.4601 54.069 45.2201 55.089 45.1501C56.099 45.0801 56.859 44.2001 56.789 43.1801Z" fill="#2B361E"/>
<path d="M51.3789 44.8797C50.6989 44.7297 50.059 44.4197 49.519 43.9897" stroke="#2B361E" stroke-width="0.5" stroke-linecap="round" stroke-linejoin="round"/>
<path d="M60.3989 42.8698C59.5389 41.3598 58.0489 40.2198 56.3589 39.7998" stroke="#2B361E" stroke-width="0.5" stroke-linecap="round" stroke-linejoin="round"/>
<path d="M64.779 61.3998C65.679 61.3598 66.569 61.2498 67.479 61.1298C67.689 61.0998 70.559 60.7698 70.539 60.5898L70.459 59.9798C69.779 60.0198 69.119 59.5998 68.619 59.2098L68.399 59.0298C67.869 58.5998 67.319 58.1498 66.629 57.9398C65.959 57.7398 65.059 57.8398 64.559 58.3898C64.049 57.8398 63.159 57.7298 62.479 57.9398C61.799 58.1598 61.249 58.5998 60.709 59.0298L60.489 59.2098C59.989 59.5898 59.329 60.0098 58.649 59.9798L58.569 60.5898C59.729 61.0298 61.199 61.1598 62.419 61.3198C63.219 61.4198 63.999 61.4298 64.789 61.3998H64.779Z" fill="#2B361E"/>
<path d="M69.559 60.5199C70.219 60.3899 70.869 60.1899 71.489 59.9199" stroke="#2B361E" stroke-width="0.58" stroke-linecap="round" stroke-linejoin="round"/>
<path d="M59.739 60.5199C59.079 60.3899 58.429 60.1899 57.809 59.9199" stroke="#2B361E" stroke-width="0.58" stroke-linecap="round" stroke-linejoin="round"/>
<path d="M61.279 63.0596C63.449 63.5696 65.729 63.6296 67.919 63.2196" stroke="#2B361E" stroke-width="0.5" stroke-linecap="round" stroke-linejoin="round"/>
<path d="M62.299 53.2598C63.549 54.4098 65.639 54.5098 66.999 53.4798" stroke="#2B361E" stroke-width="0.61" stroke-linecap="round" stroke-linejoin="round"/>
<path d="M64.649 42.8198V50.4098" stroke="#2B361E" stroke-width="0.5" stroke-linecap="round" stroke-linejoin="round"/>
<path d="M19.999 125.08C28.119 128.74 35.539 129.87 36.559 127.6C37.579 125.33 31.829 120.52 23.709 116.85C15.589 113.19 8.16898 112.06 7.14898 114.33C6.12898 116.6 11.879 121.41 19.999 125.08Z" fill="#2B361E"/>
<path d="M0.708984 151.53C0.738984 151.43 0.778984 151.34 0.808984 151.24L11.629 120.33L13.989 113.59L18.749 99.9898C20.259 95.6598 23.469 92.4998 27.139 91.2098C28.329 90.7898 29.569 90.5698 30.809 90.5698C31.949 90.5698 33.089 90.7598 34.209 91.1498C40.589 93.3898 43.449 101.39 40.439 108.58L34.239 123.34L31.989 128.69L30.159 133.05L22.389 151.53" fill="#FAF8F6"/>
<path d="M0.708984 151.53C0.738984 151.43 0.778984 151.34 0.808984 151.24L11.629 120.33L13.989 113.59L18.749 99.9898C20.259 95.6598 23.469 92.4998 27.139 91.2098C28.329 90.7898 29.569 90.5698 30.809 90.5698C31.949 90.5698 33.089 90.7598 34.209 91.1498C40.589 93.3898 43.449 101.39 40.439 108.58L34.239 123.34L31.989 128.69L30.159 133.05L22.389 151.53" stroke="#2B361E" stroke-width="0.5" stroke-linecap="round" stroke-linejoin="round"/>
<path d="M7.31898 114.05C8.81898 112.15 15.939 113.35 23.699 116.84C31.819 120.51 37.579 125.32 36.549 127.6C36.529 127.65 36.499 127.69 36.459 127.74L36.549 127.78L45.519 106.75C49.039 98.4897 45.239 89.0797 37.239 86.2797C35.729 85.7497 34.189 85.4897 32.649 85.4897C27.169 85.4897 21.919 88.7398 19.219 94.0098L7.31898 114.06V114.05Z" fill="#2B361E"/>
<path d="M107.739 125.08C99.619 128.74 92.199 129.87 91.179 127.6C90.159 125.33 95.909 120.52 104.029 116.85C112.149 113.19 119.569 112.06 120.589 114.33C121.609 116.6 115.859 121.41 107.739 125.08Z" fill="#2B361E"/>
<path d="M105.349 151.53L97.109 131.94L95.749 128.69L93.499 123.34L92.009 119.8L89.479 113.76L87.299 108.58C84.279 101.39 87.149 93.3898 93.529 91.1498C94.639 90.7598 95.789 90.5698 96.919 90.5698C97.929 90.5698 98.929 90.7198 99.909 90.9998C103.859 92.1098 107.379 95.3998 108.989 99.9898L113.749 113.59L116.109 120.33L126.929 151.24C126.959 151.34 126.999 151.43 127.029 151.53" fill="#FAF8F6"/>
<path d="M105.349 151.53L97.109 131.94L95.749 128.69L93.499 123.34L92.009 119.8L89.479 113.76L87.299 108.58C84.279 101.39 87.149 93.3898 93.529 91.1498C94.639 90.7598 95.789 90.5698 96.919 90.5698C97.929 90.5698 98.929 90.7198 99.909 90.9998C103.859 92.1098 107.379 95.3998 108.989 99.9898L113.749 113.59L116.109 120.33L126.929 151.24C126.959 151.34 126.999 151.43 127.029 151.53" stroke="#2B361E" stroke-width="0.5" stroke-linecap="round" stroke-linejoin="round"/>
<path d="M120.409 114.05C118.909 112.15 111.789 113.35 104.029 116.84C95.909 120.51 90.149 125.32 91.179 127.6C91.199 127.65 91.229 127.69 91.269 127.74L91.179 127.78L82.209 106.75C78.689 98.4897 82.489 89.0797 90.489 86.2797C91.999 85.7497 93.539 85.4897 95.079 85.4897C100.559 85.4897 105.809 88.7398 108.509 94.0098L120.409 114.06V114.05Z" fill="#2B361E"/>
<path d="M100.509 103.81L97.949 116.05C98.459 117.17 98.859 118.35 99.129 119.58C99.409 120.86 99.559 122.18 99.559 123.54C99.559 125.16 99.349 126.74 98.939 128.24C98.599 129.54 98.119 130.78 97.509 131.94C96.509 133.86 95.189 135.59 93.599 137.04L90.589 151.53H36.419L33.409 136.63C32.319 135.57 31.359 134.36 30.559 133.05C29.609 131.49 28.879 129.78 28.429 127.96C28.079 126.55 27.889 125.07 27.889 123.54C27.889 122.01 28.089 120.48 28.449 119.04C28.679 118.13 28.969 117.25 29.319 116.4L26.779 103.81C25.689 99.1698 25.899 94.6298 27.539 91.2098C28.889 88.3698 31.229 86.3098 34.629 85.5798C35.489 85.3998 36.429 85.2998 37.439 85.2998H91.179C92.179 85.2998 93.099 85.3998 93.939 85.5798C97.159 86.2798 99.209 88.2698 100.309 90.9998C101.719 94.4498 101.619 99.0798 100.509 103.81Z" fill="#2B361E"/>
<path d="M100.509 103.81C100.129 105.86 99.789 107.92 99.379 109.96C98.989 112.01 98.599 114.05 98.169 116.09V115.95C98.959 117.71 99.489 119.59 99.699 121.52C99.899 123.45 99.789 125.4 99.389 127.29C98.999 129.18 98.249 130.99 97.279 132.65C96.299 134.31 95.029 135.78 93.599 137.04C94.969 135.71 96.119 134.17 97.029 132.51C97.949 130.85 98.579 129.05 98.959 127.2C99.699 123.5 99.269 119.58 97.739 116.13C97.719 116.09 97.719 116.04 97.729 115.99C98.159 113.95 98.619 111.92 99.079 109.88C99.519 107.84 100.029 105.82 100.499 103.79L100.509 103.81Z" fill="white"/>
<path d="M33.409 136.63C32.079 135.38 30.899 133.95 29.999 132.34C29.099 130.74 28.419 129 28.049 127.19C27.679 125.38 27.569 123.51 27.749 121.67C27.919 119.83 28.399 118.02 29.119 116.31V116.44C28.269 112.24 27.509 108.02 26.789 103.8C27.759 107.97 28.699 112.16 29.549 116.35C29.549 116.4 29.549 116.44 29.539 116.48C28.169 119.82 27.779 123.55 28.469 127.09C28.819 128.86 29.399 130.59 30.249 132.19C31.089 133.79 32.149 135.3 33.419 136.61L33.409 136.63Z" fill="white"/>
<path d="M77.239 80.8198H50.229V89.0398H77.239V80.8198Z" fill="#2B361E"/>
<path d="M77.669 85.0498C77.759 86.0698 77.799 87.1098 77.799 88.1698C77.799 100.8 71.559 111.05 63.849 111.05C56.139 111.05 49.899 100.81 49.899 88.1698C49.899 87.2698 49.929 86.3798 49.989 85.4998" stroke="white" stroke-width="0.5" stroke-linecap="round" stroke-linejoin="round"/>
</g>
<defs>
<clipPath id="clip0_986_3296">
<rect width="128" height="152" fill="white"/>
</clipPath>
</defs>
</svg>
