<svg width="20" height="18" viewBox="0 0 20 18" fill="none" xmlns="http://www.w3.org/2000/svg">
<path d="M5.33423 7.80889C3.54084 7.61162 2.6087 5.74811 2.6087 3.91304C2.6087 1.97244 2.63284 0 5.65217 0C7.06938 0 7.82672 0.434544 8.23139 1.0964C7.96533 1.17349 7.71023 1.27197 7.46757 1.39433C6.695 1.7839 6.1529 2.36371 5.80373 3.03366C5.21328 4.16645 5.21567 5.5387 5.21718 6.39964L5.21731 6.52174C5.21731 6.94493 5.25513 7.37851 5.33423 7.80889Z" fill="#196343" fill-opacity="0.52"/>
<path d="M5.92105 9.56522H5.21747C1.9566 9.56522 0 11.0435 0 15.3913H2.86409C3.14015 14.1213 3.65128 13.2849 4.45167 12.4118C5.13436 11.6671 5.95148 11.167 6.84507 10.8561C6.64317 10.652 6.46097 10.4308 6.29917 10.1978C6.15861 9.99528 6.03277 9.78367 5.92105 9.56522Z" fill="#196343" fill-opacity="0.52"/>
<path d="M6.95644 6.52174C6.95644 8.46234 7.9989 10.4348 9.99992 10.4348C12.0009 10.4348 13.0434 8.46234 13.0434 6.52174C13.0434 4.58114 13.0192 2.6087 9.99992 2.6087C6.98059 2.6087 6.95644 4.58114 6.95644 6.52174Z" fill="#196343" fill-opacity="0.52"/>
<path d="M15.6521 18C15.6521 14.5217 14.4203 12.1739 10.4348 12.1739H9.56522C6.30435 12.1739 4.34775 13.6522 4.34775 18H15.6521Z" fill="#196343" fill-opacity="0.52"/>
<path d="M14.3478 0C12.9306 0 12.1733 0.43457 11.7686 1.09646C12.0346 1.17355 12.2896 1.272 12.5323 1.39433C13.3048 1.7839 13.8469 2.36371 14.1961 3.03366C14.7866 4.16645 14.7842 5.5387 14.7827 6.39964L14.7825 6.52174C14.7825 6.94495 14.7447 7.37857 14.6656 7.80894C16.4591 7.61177 17.3913 5.74816 17.3913 3.91304C17.3913 1.97244 17.3672 0 14.3478 0Z" fill="#196343" fill-opacity="0.52"/>
<path d="M15.9349 12.877C16.5458 13.7007 16.9215 14.3922 17.1379 15.3913H20C20 11.913 18.7682 9.56522 14.7827 9.56522H14.0788C13.9671 9.78367 13.8412 9.99528 13.7007 10.1978C13.5388 10.431 13.3564 10.6522 13.1544 10.8566C14.292 11.252 15.2291 11.9255 15.9349 12.877Z" fill="#196343" fill-opacity="0.52"/>
</svg>
