<svg width="10" height="11" viewBox="0 0 10 11" fill="none" xmlns="http://www.w3.org/2000/svg">
<path fill-rule="evenodd" clip-rule="evenodd" d="M5 10.5C7.76142 10.5 10 8.26142 10 5.5C10 2.73858 7.76142 0.5 5 0.5C2.23858 0.5 0 2.73858 0 5.5C0 8.26142 2.23858 10.5 5 10.5ZM4.06571 4.07143H2.85714C2.85714 2.78572 3.77375 1.92857 5.14286 1.92857C6.41831 1.92857 7.28571 2.74678 7.28571 3.85714C7.28571 4.57816 6.98595 5.10104 6.35714 5.5C5.76401 5.87012 5.52857 6.03355 5.52857 6.495L5.56429 6.92857H4.38571L4.33571 6.48539C4.27774 5.71631 4.59886 5.31792 5.21429 4.92857C5.78958 4.55845 5.92857 4.3756 5.92857 3.92857C5.92857 3.43274 5.56567 3.0822 5 3.0822C4.43433 3.0822 4.09246 3.54268 4.06571 4.07143ZM5.79159 8.39089C5.79159 8.8956 5.48387 9.20804 4.98439 9.20804C4.48491 9.20804 4.17274 8.8956 4.17274 8.39089C4.17274 7.88137 4.48491 7.56893 4.98439 7.56893C5.48387 7.56893 5.79159 7.88137 5.79159 8.39089Z" fill="#196343" fill-opacity="0.52"/>
</svg>
