<svg width="16" height="16" viewBox="0 0 16 16" fill="none" xmlns="http://www.w3.org/2000/svg">
<g id="icons">
<path id="Vector" d="M11.8867 8.49325C11.7 8.11325 11.1734 7.79325 10.4734 8.33325C9.52003 9.09325 8.00003 9.09325 8.00003 9.09325C8.00003 9.09325 6.48003 9.09325 5.5267 8.33325C4.8267 7.79325 4.30003 8.11325 4.11337 8.49325C3.78003 9.15992 4.15337 9.48659 5.00003 10.0266C5.7267 10.4933 6.72003 10.6666 7.36003 10.7333L6.8267 11.2666C6.0667 12.0199 5.33337 12.7466 4.83337 13.2533C4.53337 13.5599 4.53337 14.0466 4.83337 14.3333L4.9267 14.4399C5.2267 14.7399 5.72003 14.7399 6.02003 14.4399L8.00003 12.4533C8.7667 13.2066 9.49337 13.9333 10 14.4399C10.3 14.7399 10.7867 14.7399 11.0934 14.4399L11.18 14.3333C11.4867 14.0466 11.4867 13.5599 11.18 13.2533L9.19337 11.2666L8.6667 10.7266C9.30003 10.6666 10.28 10.4866 11 10.0266C11.8467 9.48659 12.22 9.15992 11.8867 8.49325ZM8.00003 3.04659C8.92003 3.04659 9.6667 3.79325 9.6667 4.70659C9.6667 5.62659 8.92003 6.36659 8.00003 6.36659C7.08003 6.36659 6.33337 5.62659 6.33337 4.70659C6.33337 3.79325 7.08003 3.04659 8.00003 3.04659ZM8.00003 8.07992C9.8667 8.07992 11.3734 6.57325 11.3734 4.70659C11.3734 3.81192 11.018 2.9539 10.3853 2.32128C9.75272 1.68866 8.8947 1.33325 8.00003 1.33325C7.10537 1.33325 6.24735 1.68866 5.61473 2.32128C4.9821 2.9539 4.6267 3.81192 4.6267 4.70659C4.6267 6.57325 6.13337 8.07992 8.00003 8.07992Z" fill="#195B3F"/>
</g>
</svg>
